<svg fill="none" height="80" viewBox="0 0 80 80" width="80" xmlns="http://www.w3.org/2000/svg" xmlns:xlink="http://www.w3.org/1999/xlink"><radialGradient id="a" cx="34.3014" cy="27.6832" gradientUnits="userSpaceOnUse" r="36.7656"><stop offset="0" stop-color="#ffe030"/><stop offset="1" stop-color="#ffb92e"/></radialGradient><radialGradient id="b" cx="34.3014" cy="27.6832" gradientUnits="userSpaceOnUse" r="28.9251"><stop offset="0" stop-color="#ffea5f"/><stop offset="1" stop-color="#ffbc47" stop-opacity="0"/></radialGradient><linearGradient id="c"><stop offset=".00132565" stop-color="#3c2200"/><stop offset="1" stop-color="#7a4400"/></linearGradient><linearGradient id="d" gradientUnits="userSpaceOnUse" x1="27.0063" x2="27.4334" xlink:href="#c" y1="30.0843" y2="26.9015"/><linearGradient id="e" gradientUnits="userSpaceOnUse" x1="53.5934" x2="53.1663" xlink:href="#c" y1="30.0834" y2="26.9006"/><radialGradient id="f" cx="0" cy="0" gradientTransform="matrix(16.37999907 -16.6886717 6.85625709 6.72944419 17.4132 20.3184)" gradientUnits="userSpaceOnUse" r="1"><stop offset="0" stop-color="#eb672a" stop-opacity=".5"/><stop offset=".3025" stop-color="#e36521" stop-opacity=".3422"/><stop offset=".7868" stop-color="#cc600a" stop-opacity=".089705"/><stop offset=".9589" stop-color="#c25e00" stop-opacity="0"/></radialGradient><radialGradient id="g" cx="0" cy="0" gradientTransform="matrix(12.80401876 -.61956816 .49023167 10.13114613 23.6815 47.616)" gradientUnits="userSpaceOnUse" r="1"><stop offset="0" stop-color="#ff4c00"/><stop offset=".1995" stop-color="#f94c0e" stop-opacity=".8005"/><stop offset=".7145" stop-color="#ec4a2e" stop-opacity=".2855"/><stop offset="1" stop-color="#e74a3a" stop-opacity="0"/></radialGradient><linearGradient id="h"><stop offset="0" stop-color="#7a4400" stop-opacity=".5"/><stop offset=".5833" stop-color="#894d00" stop-opacity=".2069"/><stop offset=".995" stop-color="#975500" stop-opacity="0"/></linearGradient><radialGradient id="i" cx="0" cy="0" gradientTransform="matrix(20.38139935 -.14285695 .03242859 4.62658635 56.6198 57.0298)" gradientUnits="userSpaceOnUse" r="1" xlink:href="#h"/><radialGradient id="j" cx="0" cy="0" gradientTransform="matrix(7.17428904 .57142775 -.40403467 5.07266488 36.3788 55.7751)" gradientUnits="userSpaceOnUse" r="1"><stop offset="0" stop-color="#fff" stop-opacity=".75"/><stop offset="1" stop-color="#fff" stop-opacity="0"/></radialGradient><linearGradient id="k"><stop offset=".00132565" stop-color="#3c2200"/><stop offset="1" stop-color="#512d00"/></linearGradient><linearGradient id="l" gradientUnits="userSpaceOnUse" x1="38.9796" x2="42.8729" xlink:href="#k" y1="55.4789" y2="55.4789"/><linearGradient id="m"><stop offset="0" stop-color="#ff40bf"/><stop offset=".8932" stop-color="#7000a3"/></linearGradient><linearGradient id="n" gradientUnits="userSpaceOnUse" x1="55.1748" x2="56.5166" xlink:href="#m" y1="51.5834" y2="60.7917"/><linearGradient id="o"><stop offset=".2544" stop-color="#d1f2ff"/><stop offset="1" stop-color="#17bbfe"/></linearGradient><linearGradient id="p" gradientUnits="userSpaceOnUse" x1="43.8612" x2="44.7811" xlink:href="#o" y1="50.6956" y2="57.0087"/><linearGradient id="q" gradientUnits="userSpaceOnUse" x1="57.496" x2="71.9956" y1="52.0159" y2="45.7927"><stop offset="0" stop-color="#7000a3" stop-opacity="0"/><stop offset=".2242" stop-color="#530078" stop-opacity=".2242"/><stop offset=".5925" stop-color="#260038" stop-opacity=".5925"/><stop offset=".8613" stop-color="#0b000f" stop-opacity=".8613"/><stop offset="1"/></linearGradient><linearGradient id="r"><stop offset="0"/><stop offset=".1488" stop-color="#27002d"/><stop offset=".4631" stop-color="#760086"/><stop offset=".7193" stop-color="#b000c7"/><stop offset=".9045" stop-color="#d300f0"/><stop offset="1" stop-color="#e100ff"/></linearGradient><linearGradient id="s" gradientUnits="userSpaceOnUse" x1="69.9703" x2="65.5709" xlink:href="#r" y1="61.7013" y2="46.2574"/><linearGradient id="t" gradientUnits="userSpaceOnUse" x1="65.5246" x2="64.0816" xlink:href="#r" y1="37.664" y2="51.8546"/><linearGradient id="u" gradientUnits="userSpaceOnUse" x1="65.1951" x2="64.5884" y1="48.8753" y2="44.712"><stop offset="0" stop-color="#7000a3"/><stop offset=".4469" stop-color="#a900d2"/><stop offset=".8117" stop-color="#d200f2"/><stop offset="1" stop-color="#e100ff"/></linearGradient><linearGradient id="v" gradientUnits="userSpaceOnUse" x1="36.532" x2="39.7871" xlink:href="#k" y1="54.8277" y2="55.2627"/><linearGradient id="w"><stop offset="0" stop-color="#fff" stop-opacity=".5"/><stop offset="1" stop-color="#fff" stop-opacity="0"/></linearGradient><radialGradient id="x" cx="0" cy="0" gradientTransform="matrix(10.90661932 -1.58856092 .17715343 1.21628641 52.9829 52.1146)" gradientUnits="userSpaceOnUse" r="1" xlink:href="#w"/><radialGradient id="y" cx="0" cy="0" gradientTransform="matrix(1.17983387 5.41920399 -1.21275105 .26403228 70.361 43.6091)" gradientUnits="userSpaceOnUse" r="1" xlink:href="#w"/><linearGradient id="z" gradientUnits="userSpaceOnUse" x1="21.9461" x2="4.29013" xlink:href="#o" y1="7.80268" y2="20.1898"/><linearGradient id="A"><stop offset="0" stop-color="#ff40bf"/><stop offset=".7456" stop-color="#7000a3"/></linearGradient><linearGradient id="B" gradientUnits="userSpaceOnUse" x1="23.4764" x2="8.05308" xlink:href="#A" y1="12.6762" y2="25.5705"/><linearGradient id="C" gradientUnits="userSpaceOnUse" x1="16.0229" x2="5.29391" xlink:href="#A" y1="8.51114" y2="17.4808"/><linearGradient id="D" gradientUnits="userSpaceOnUse" x1="9.70573" x2="2.93982" xlink:href="#A" y1="5.31891" y2="10.9754"/><linearGradient id="E"><stop offset="0" stop-color="#440063" stop-opacity=".75"/><stop offset="1" stop-color="#420061" stop-opacity="0"/></linearGradient><radialGradient id="F" cx="0" cy="0" gradientTransform="matrix(5.28434375 11.49009661 -2.82978721 1.30143104 8.49277 16.9167)" gradientUnits="userSpaceOnUse" r="1" xlink:href="#E"/><radialGradient id="G" cx="0" cy="0" gradientTransform="matrix(10.8174149 6.55172382 -1.61380001 2.66451162 14.0325 11.1614)" gradientUnits="userSpaceOnUse" r="1" xlink:href="#w"/><radialGradient id="H" cx="0" cy="0" gradientTransform="matrix(13.48781775 7.85022345 -7.99298222 13.73309795 18.1242 27.5642)" gradientUnits="userSpaceOnUse" r="1" xlink:href="#E"/><linearGradient id="I"><stop offset=".00132565" stop-color="#7a4400"/><stop offset="1" stop-color="#643800"/></linearGradient><radialGradient id="J" cx="0" cy="0" gradientTransform="matrix(-4.68712807 .37102518 -.2630877 -3.32356347 28.5848 37.8158)" gradientUnits="userSpaceOnUse" r="1" xlink:href="#I"/><linearGradient id="K" gradientUnits="userSpaceOnUse" x1="29.0423" x2="28.669" xlink:href="#k" y1="31.8984" y2="37.016"/><radialGradient id="L" cx="0" cy="0" gradientTransform="matrix(4.68713085 .37099 -.26306276 3.32356545 52.0077 37.8157)" gradientUnits="userSpaceOnUse" r="1" xlink:href="#I"/><linearGradient id="M" gradientUnits="userSpaceOnUse" x1="51.5509" x2="51.9241" xlink:href="#k" y1="31.8984" y2="37.0159"/><linearGradient id="N" gradientUnits="userSpaceOnUse" x1="45.733" x2="46.4905" xlink:href="#m" y1="52.7939" y2="58.5833"/><radialGradient id="O" cx="25.4276" cy="20.1193" gradientUnits="userSpaceOnUse" r="68.6114" xlink:href="#h"/><radialGradient id="P" cx="0" cy="0" gradientTransform="matrix(93.35247493 .06841938 -.06837394 93.29047494 20.5621 13.7082)" gradientUnits="userSpaceOnUse" r="1" xlink:href="#h"/><radialGradient id="Q" cx="28.6657" cy="17.2382" gradientUnits="userSpaceOnUse" r="68.6115" xlink:href="#h"/><radialGradient id="R" cx="28.6657" cy="17.2384" gradientUnits="userSpaceOnUse" r="68.6115" xlink:href="#h"/><radialGradient id="S" cx="28.6657" cy="17.2381" gradientUnits="userSpaceOnUse" r="68.6115" xlink:href="#h"/><radialGradient id="T" cx="21.2181" cy="18.286" gradientUnits="userSpaceOnUse" r="68.6115" xlink:href="#h"/><radialGradient id="U" cx="0" cy="0" gradientTransform="matrix(68.6118 0 0 68.6115 28.6655 17.2383)" gradientUnits="userSpaceOnUse" r="1" xlink:href="#h"/><radialGradient id="V" cx="0" cy="0" gradientTransform="matrix(68.6115 0 0 68.6112 31.1419 14.1431)" gradientUnits="userSpaceOnUse" r="1" xlink:href="#h"/><radialGradient id="W" cx="0" cy="0" gradientTransform="matrix(83.40473226 -45.41408047 45.37649336 83.33570206 24.4618 27.3772)" gradientUnits="userSpaceOnUse" r="1" xlink:href="#h"/><linearGradient id="X"><stop offset="0" stop-color="#ff9214"/><stop offset="1" stop-color="#ff4e0d"/></linearGradient><linearGradient id="Y" gradientUnits="userSpaceOnUse" x1="17.6686" x2="15.4752" xlink:href="#X" y1="34.3325" y2="30.6745"/><linearGradient id="Z"><stop offset="0" stop-color="#80dafe"/><stop offset="1" stop-color="#008ee6"/></linearGradient><linearGradient id="aa" gradientUnits="userSpaceOnUse" x1="68.6915" x2="55.9634" xlink:href="#Z" y1="24.2906" y2="21.8981"/><linearGradient id="ab"><stop offset="0" stop-color="#ffcb4b"/><stop offset="1" stop-color="#e81ca2"/></linearGradient><linearGradient id="ac" gradientUnits="userSpaceOnUse" x1="59.9646" x2="69.0034" xlink:href="#ab" y1="15.1076" y2="16.8881"/><linearGradient id="ad"><stop offset="0" stop-color="#fbe07a"/><stop offset="1" stop-color="#e81ca2"/></linearGradient><linearGradient id="ae" gradientUnits="userSpaceOnUse" x1="36.7304" x2="27.3392" xlink:href="#ad" y1="16.2253" y2="16.4561"/><linearGradient id="af" gradientUnits="userSpaceOnUse" x1="51.8993" x2="52.2167" xlink:href="#Z" y1="12.3591" y2="16.1686"/><linearGradient id="ag" gradientUnits="userSpaceOnUse" x1="67.6065" x2="64.4472" xlink:href="#ab" y1="36.1454" y2="32.717"/><linearGradient id="ah" gradientUnits="userSpaceOnUse" x1="15.6724" x2="17.8922" y1="45.9803" y2="46.3979"><stop offset=".2544" stop-color="#9f00e8"/><stop offset="1" stop-color="#7000a3"/></linearGradient><linearGradient id="ai" gradientUnits="userSpaceOnUse" x1="49.58" x2="53.834" xlink:href="#Z" y1="46.4366" y2="40.8493"/><linearGradient id="aj" gradientUnits="userSpaceOnUse" x1="9.97252" x2="15.0625" xlink:href="#X" y1="57.061" y2="58.8834"/><linearGradient id="ak" gradientUnits="userSpaceOnUse" x1="56.1297" x2="35.8587" xlink:href="#ad" y1="6.98481" y2="21.1521"/><radialGradient id="al" cx="8.30806" cy="50.5101" gradientUnits="userSpaceOnUse" r="32.404" xlink:href="#h"/><linearGradient id="am" gradientUnits="userSpaceOnUse" x1="28.1642" x2="19.8987" y1="45.1344" y2="78.6053"><stop offset="0" stop-color="#f78174"/><stop offset=".3893" stop-color="#8800c7"/><stop offset="1" stop-color="#3640ff"/></linearGradient><path d="m40.305 70.5145c16.8316 0 30.4762-13.6446 30.4762-30.4762 0-16.8315-13.6446-30.47616-30.4762-30.47616-16.8315 0-30.47614 13.64466-30.47614 30.47616 0 16.8316 13.64464 30.4762 30.47614 30.4762z" fill="url(#a)"/><path d="m40.305 70.5145c16.8316 0 30.4762-13.6446 30.4762-30.4762 0-16.8315-13.6446-30.47616-30.4762-30.47616-16.8315 0-30.47614 13.64466-30.47614 30.47616 0 16.8316 13.64464 30.4762 30.47614 30.4762z" fill="url(#b)" opacity=".5"/><path d="m33.6574 28.9144c.1715-1.2191-1.0476-2.1524-3.2952-2.4381-1.9238-.2476-6.2476.2286-9.6571 3.5619-.6286.6095.1524 1.1048.7238.7238 1.9809-1.2762 7.0095-2.5714 10.6666-1.6762 1.4858.381 1.5619-.1714 1.5619-.1714z" fill="url(#d)"/><path d="m46.9527 28.9144c-.1714-1.2191 1.0476-2.1524 3.2952-2.4381 1.9238-.2476 6.2477.2286 9.6572 3.5619.6285.6095-.1524 1.1048-.7238.7238-1.981-1.2762-7.0096-2.5714-10.6667-1.6762-1.5048.381-1.5619-.1714-1.5619-.1714z" fill="url(#e)"/><path d="m40.305 70.5145c16.8316 0 30.4762-13.6446 30.4762-30.4762 0-16.8315-13.6446-30.47616-30.4762-30.47616-16.8315 0-30.47614 13.64466-30.47614 30.47616 0 16.8316 13.64464 30.4762 30.47614 30.4762z" fill="url(#f)"/><path d="m40.305 70.5145c16.8316 0 30.4762-13.6446 30.4762-30.4762 0-16.8315-13.6446-30.47616-30.4762-30.47616-16.8315 0-30.47614 13.64466-30.47614 30.47616 0 16.8316 13.64464 30.4762 30.47614 30.4762z" fill="url(#g)" opacity=".5"/><path d="m40.305 70.5145c16.8316 0 30.4762-13.6446 30.4762-30.4762 0-16.8315-13.6446-30.47616-30.4762-30.47616-16.8315 0-30.47614 13.64466-30.47614 30.47616 0 16.8316 13.64464 30.4762 30.47614 30.4762z" fill="url(#i)" opacity=".75"/><path d="m34.1716 61.4096c3.8397 0 6.9524-3.1127 6.9524-6.9524s-3.1127-6.9524-6.9524-6.9524-6.9524 3.1127-6.9524 6.9524 3.1127 6.9524 6.9524 6.9524z" fill="url(#j)" opacity=".4"/><path d="m40.9333 57.9999c1.073 0 1.9429-1.1257 1.9429-2.5143s-.8699-2.5142-1.9429-2.5142-1.9428 1.1256-1.9428 2.5142.8698 2.5143 1.9428 2.5143z" fill="url(#l)"/><path d="m68 45.7526c.1142 1.0476-.5715 2.9143-1.6572 4.1333-.819.9334-1.9619 1.2953-3.1047 1.0858-.2286-.0381-.4381-.0953-.6667-.1905-1.4667-.6095-2.8572-1.6762-4.3429-1.4476l-9.4285 1.3714c-1.2572.1905-2.4762.5143-3.6572.9905l-4.9524 2.5714.2667 1.7905 5.4667 1.0476c1.2762.1333 2.5333.0952 3.7904-.0762l11.8667-1.7333 3.4095-1.1048 4.4191-3.3524c1.0095-.8571.9905-2.7428-.0381-3.7143z" fill="url(#n)"/><path d="m48.0761 50.8382c-.9904.1904-1.9619.4761-2.9142.8761l-4.9524 2.5715.2666 1.7905 5.4667 1.0476c1.0095.0952 2.0381.0952 3.0286 0-.4953-.0953-1.0667-1.3905-1.2953-3.0095-.2285-1.6572-.0571-3.0477.4-3.2762z" fill="url(#p)"/><path d="m68 45.7526c.1142 1.0476-.5715 2.9143-1.6572 4.1333-.819.9334-1.9619 1.2953-3.1048 1.0858-.2285-.0381-.438-.0953-.6666-.1905-1.4667-.6095-2.8572-1.6762-4.3429-1.4476l-9.4285 1.3714c-1.2572.1905-2.4762.5143-3.6572.9905l-4.9524 2.5714.2667 1.7905 5.4667 1.0476c1.2762.1333 2.5333.0952 3.7904-.0762l11.2572-1.6381 3.3143-.6857 5.1047-3.8476c1.0096-.8572.9905-2.7429-.0381-3.7143z" fill="url(#q)"/><path d="m60.9905 55.3907c6.3428-.9143 12.6095-2.5143 11.2571-10.8572-.9714-6.0571-10.1905-6.6095-10.7047-2.3619.6666-.7238 1.638-2.1904 2.3428-2.2095 3.2952-.1143 4.3048 3.6762 4.3619 5.7143.1143 5.1048-4.1143 9.2571-7.2571 9.7143z" fill="url(#s)"/><path d="m66.9141 42.9715c.8762.2857 1.1048 1.6762 1.0857 2.7619 0 0 .2477.6286.0762.8952l.1334-.2476c0-.019.019-.7048.019-.7238-.0571-2.0381-1.1048-5.8667-4.3619-5.7143-2.9714.1524-2.7428 4.4571-1.9238 5.6571l.4572.7429 3.5238-.6476c-.4572-2.3238.2857-2.9524.9904-2.7238z" fill="url(#t)"/><path d="m61.4475 43.7905c.1524 1.2.6476 2.3429 1.1619 2.2667s.7238-1.2381.6286-1.9238l4.4381.6667c.0952.6285-.0953 1.6952-.5715 1.7714l-4.438-.0762c-1.0286-.019-1.2191-2.1714-1.2191-2.7048z" fill="url(#u)"/><path d="m40.9716 55.4097c-.5905 4.4571-4.1905 5.4285-3.4667 4.1523.9524-1.7333 1.1809-2.8761 1.3905-4.419.2095-1.5429.2857-2.7048-.1715-4.6286-.3619-1.4285 2.8381.4381 2.2477 4.8953z" fill="#643800"/><path d="m38.7048 50.5145c.4762 1.9238.3809 3.0857.1714 4.6285-.2095 1.5429-.4381 2.6857-1.3905 4.4191-.2476.4571.0191.6286.5143.4762-.019 0-.4952-.1334-.0571-.7238.6666-.8762 1.6952-2.1715 1.9428-4.0191.2476-1.8667-.4-3.3714-.819-4.4-.2476-.6857.2476-.6857.2476-.6857-.4191-.2857-.7238-.1905-.6095.3048z" fill="url(#v)"/><path d="m68 45.7526c.1142 1.0476-.5715 2.9143-1.6572 4.1333-.819.9334-1.9619 1.2953-3.1048 1.0858-.2285-.0381-.438-.0953-.6666-.1905-1.4667-.6095-2.8572-1.6762-4.3429-1.4476l-9.4285 1.3714c-1.2572.1905-2.4762.5143-3.6572.9905l-4.9524 2.5714.2667 1.7905 5.4667 1.0476c1.2762.1333 2.5333.0952 3.7904-.0762l11.2572-1.6381 3.3143-.6857 5.1047-3.8476c1.0096-.8572.9905-2.7429-.0381-3.7143z" fill="url(#x)" opacity=".75"/><path d="m60.9905 55.3907c6.3428-.9143 12.6095-2.5143 11.2571-10.8572-.9714-6.0571-10.1905-6.6095-10.7047-2.3619.6666-.7238 1.638-2.1904 2.3428-2.2095 3.2952-.1143 4.3048 3.6762 4.3619 5.7143.1143 5.1048-4.1143 9.2571-7.2571 9.7143z" fill="url(#y)" opacity=".75"/><path d="m26.5334 15.1239c.2858-.1333.3048-.5333.0191-.6857l-2.8-1.4667-16.76193-8.70473c-.34285-.17143-1.71428-.78095-3.25714.51429-1.6381 1.42857-1.25714 2.51428-1.14286 2.85714l8.70473 22.5333c.1905.5143.9143.4953 1.1048-.019 2.1333-6.0572 10.7619-13.4667 14.1333-15.0286z" fill="url(#z)"/><path d="m23.7716 12.9714-3.4667-1.7905c-1.2571-.5714-11.80952 7.4095-11.54285 12.3619l2.01905 5.2191c-2.41905-6.2096 11.2952-16.6667 12.9905-15.7905z" fill="url(#B)"/><path d="m16.781 9.37168-.7809-.41905-2.6857-1.39047c-1.1238-.09524-7.40955 4.72384-7.65717 7.98094l1.67619 4.3048c-.38096-4.5143 8.30478-11.08574 9.44758-10.47622z" fill="url(#C)"/><path d="m7.20002 4.39992c-.99048.3619-3.5619 2.32381-4.28571 4.03809l1.75238 4.55239c-1.06667-2.781 4.49523-6.97143 5.67621-6.97143z" fill="url(#D)"/><path d="m26.5334 15.1239c.2858-.1333.3048-.5333.0191-.6857l-2.8-1.4667-16.76193-8.70473c-.34285-.17143-1.71428-.78095-3.25714.51429-1.6381 1.42857-1.25714 2.51428-1.14286 2.85714l8.70473 22.5333c.1905.5143.9143.4953 1.1048-.019 2.1333-6.0572 10.7619-13.4667 14.1333-15.0286z" fill="url(#F)" opacity=".75"/><path d="m26.5334 15.1239c.2858-.1333.3048-.5333.0191-.6857l-2.8-1.4667-16.76193-8.70473c-.34285-.17143-1.71428-.78095-3.25714.51429-1.6381 1.42857-1.25714 2.51428-1.14286 2.85714l8.70473 22.5333c.1905.5143.9143.4953 1.1048-.019 2.1333-6.0572 10.7619-13.4667 14.1333-15.0286z" fill="url(#G)" opacity=".75"/><path d="m26.5334 15.1239c.2858-.1333.3048-.5333.0191-.6857l-2.8-1.4667-16.76193-8.70473c-.34285-.17143-1.71428-.78095-3.25714.51429-1.6381 1.42857-1.25714 2.51428-1.14286 2.85714l8.70473 22.5333c.1905.5143.9143.4953 1.1048-.019 2.1333-6.0572 10.7619-13.4667 14.1333-15.0286z" fill="url(#H)" opacity=".75"/><path d="m32.0573 35.1237c-2.1143-1.3142-4.8381-1.1619-6.8191.3239-1.0095.7619-2 1.9238-2.5904 3.7333-.0953.3047-.1715.6286-.1905.9524-.0381.6476.419 1.2381 1.1428.5523 5.6381-5.3142 9.581.1524 9.581.1524.7619.5524 1.5429-.5904 1.3905-1.6571-.0381-.3048-.0762-.6286-.1714-.9143-.4381-1.5429-1.3715-2.5143-2.3429-3.1429z" fill="url(#J)"/><path d="m34.4001 38.2669c-.2095-.6476-.4762-1.1809-.7619-1.6381-.4571-.6476-1.0095-1.1238-1.5809-1.4857-2.1143-1.3143-4.8381-1.1619-6.8191.3238-1.0095.7619-2 1.9238-2.5905 3.7334-.0571.1714-.0952.3619-.1333.5523v.0191c2.4762-3.8667 6.0571-4.1333 6.0571-4.1333s3.5429-.3048 5.9429 3.1619c-.0381-.1905-.0571-.3619-.1143-.5334z" fill="url(#K)"/><path d="m48.5525 35.1237c2.1143-1.3142 4.8381-1.1619 6.8191.3239 1.0095.7619 2 1.9238 2.5905 3.7333.0952.3047.1714.6286.1905.9524.038.6476-.4191 1.2381-1.1429.5523-5.6381-5.3142-9.581.1524-9.581.1524-.7619.5524-1.5428-.5904-1.3904-1.6571.0381-.3048.0761-.6286.1714-.9143.419-1.5429 1.3524-2.5143 2.3428-3.1429z" fill="url(#L)"/><path d="m46.1907 38.2669c.2095-.6476.4762-1.1809.7619-1.6381.4572-.6476 1.0095-1.1238 1.581-1.4857 2.1143-1.3143 4.8381-1.1619 6.819.3238 1.0095.7619 2 1.9238 2.5905 3.7334.0571.1714.0952.3619.1333.5523v.0191c-2.4762-3.8667-6.0571-4.1333-6.0571-4.1333s-3.5429-.3048-5.9429 3.1619c.0381-.1905.0762-.381.1143-.5334z" fill="url(#M)"/><path d="m47.4287 57.1809c-.4762-.1333-.9714-1.3714-1.2-2.8952-.2095-1.4476-.0762-2.7048.2857-3.0476-.4571.1333-.9143.3047-1.3524.4762l-.0571.019c-.2857.4191-.4381 1.4667-.2667 2.7238.1714 1.2191.6286 2.2286 1.0095 2.6286l.0953.019c.4952.0572.9904.0762 1.4857.0762z" fill="url(#N)"/><g opacity=".25"><path d="m16.0761 31.9048c.9905 2.8572-1.5048 3.6-.6857 5.4477l2.7809-.7239c-.819-1.8476 1.3524-2.5523.4762-5.5047z" fill="url(#O)" opacity=".25"/><path d="m63.1427 22.6668c-3.8096 2.1524-4.781-2.2857-7.3524-1.2952l.8 3.8285c2.5524-.9714 3.6381 3.181 7.4476 1.0286z" fill="url(#P)" opacity=".25"/><path d="m32.1713 18.2475c.4313 0 .781-.3496.781-.7809s-.3497-.781-.781-.781-.7809.3497-.7809.781.3496.7809.7809.7809z" fill="url(#Q)" opacity=".25"/><path d="m52.2094 17.9049c.4313 0 .781-.3496.781-.7809s-.3497-.781-.781-.781-.7809.3497-.7809.781.3496.7809.7809.7809z" fill="url(#R)" opacity=".25"/><path d="m66.3046 36.6475c.4313 0 .781-.3497.781-.781s-.3497-.781-.781-.781-.7809.3497-.7809.781.3496.781.7809.781z" fill="url(#S)" opacity=".25"/><path d="m17.4284 47.9239c.4313 0 .781-.3497.781-.781s-.3497-.7809-.781-.7809-.7809.3496-.7809.7809.3496.781.7809.781z" fill="url(#T)" opacity=".25"/><path d="m54.5522 64.0191c.4313 0 .781-.3496.781-.7809s-.3497-.781-.781-.781-.781.3497-.781.781.3497.7809.781.7809z" fill="url(#U)" opacity=".25"/><path d="m52.1713 45.0094c.4313 0 .781-.3496.781-.7809s-.3497-.781-.781-.781-.7809.3497-.7809.781.3496.7809.7809.7809z" fill="url(#V)" opacity=".25"/><path d="m44.3809 18.6476c-.0762-1.2381-.1905-2.5333-.3429-3.8857-4.8 3.0095-6.6286 6.6667-6.6286 6.6667l1.4286 3.0857c1.5048-2.8572 4-4.8381 5.5429-5.8667z" fill="url(#W)" opacity=".25"/></g><path d="m15.6571 30.2289c.9905 2.8571-1.5047 3.6-.6857 5.4476l2.781-.7238c-.8191-1.8476 1.3524-2.5524.4762-5.5048z" fill="url(#Y)"/><path d="m63.1432 21.124c-3.8096 2.1524-4.781-2.2857-7.3524-1.2952l.8 3.8286c2.5524-.9715 3.6381 3.1809 7.4476 1.0285z" fill="url(#aa)"/><path d="m64.5524 16.7621c.4313 0 .781-.3497.781-.781s-.3497-.781-.781-.781-.7809.3497-.7809.781.3496.781.7809.781z" fill="url(#ac)"/><path d="m32.1716 17.1051c.4313 0 .7809-.3497.7809-.781s-.3496-.7809-.7809-.7809-.781.3496-.781.7809.3497.781.781.781z" fill="url(#ae)"/><path d="m52.2097 16.7621c.4313 0 .7809-.3497.7809-.781s-.3496-.781-.7809-.781-.781.3497-.781.781.3497.781.781.781z" fill="url(#af)"/><path d="m66.3049 35.505c.4313 0 .7809-.3497.7809-.781s-.3496-.7809-.7809-.7809-.781.3496-.781.7809.3497.781.781.781z" fill="url(#ag)"/><path d="m17.2573 47.0288c.4313 0 .7809-.3496.7809-.7809s-.3496-.781-.7809-.781-.781.3497-.781.781.3497.7809.781.7809z" fill="url(#ah)"/><path d="m52.0764 43.9433c.4313 0 .7809-.3497.7809-.781s-.3496-.7809-.7809-.7809-.781.3496-.781.7809.3497.781.781.781z" fill="url(#ai)"/><path d="m11.0668 58.1906c.4314 0 .781-.3496.781-.7809s-.3496-.781-.781-.781c-.4313 0-.7809.3497-.7809.781s.3496.7809.7809.7809z" fill="url(#aj)"/><path d="m44.7812 15.924c-.0762-1.2381-.1904-2.5333-.3428-3.8857-4.8 3.0096-6.6286 6.6667-6.6286 6.6667l1.4286 3.0857c1.5047-2.8381 4-4.8381 5.5428-5.8667z" fill="url(#ak)"/><path d="m29.7335 52.6475c.4381 8.4572-6.4762 10.6477-8.5523 11.1238 1.0857.8762 2.2285 1.6762 3.4476 2.4 3.7714-1.5809 9.9809-5.5619 7.8857-14.3428-1.0286.2667-1.9619.5333-2.781.819z" fill="url(#al)"/><path d="m27.7525 51.1999c.5143 9.9429-9.1429 11.2381-9.1429 11.2381l1.3524 3.181s13.5048-2.8762 10.5714-15.2191c-1.0285.2476-1.9619.5143-2.7809.8z" fill="url(#am)"/></svg>